# xmcd
#
# Track frame offsets:
#	182
#	22715
#	40597
#	57830
#	75920
#	88485
#	104832
#	118025
#	138210
#	156735
#	172312
#	188357
#	203712
#	225290
#	239362
#	254810
#	277075
#	294047
#
# Disc length: 4192 seconds
#
# Revision: 0
# Processed by: cddbd v1.5.1PL2 Copyright (c) Steve Scherf et al.
# Submitted via: EasyCDDAExtractor 9.1.3.1
#
DISCID=f7105e12
DTITLE=Dick Rvers - Plein soleil
DYEAR=1999
DGENRE=Chanson
TTITLE0=Plein soleil
TTITLE1=Pour que vive les hommes
TTITLE2=Ne me laisse pas comme ça
TTITLE3=Sacrée Marie
TTITLE4=Je pense à toi
TTITLE5=Mauvaise fille
TTITLE6=Ho maman merci
TTITLE7=Le Montana
TTITLE8=Comme les dimanches
TTITLE9=Pire que l'amour
TTITLE10=Les filles de Moscou
TTITLE11=Hôtel de Louisiane
TTITLE12=La dernièrs chanson
TTITLE13=Norma
TTITLE14=Orage
TTITLE15=Plein soleil (édit radio)
TTITLE16=Le Montana (édit radio)
TTITLE17=Le Montana (version alternative avec cordes)
EXTD=
EXTT0=
EXTT1=
EXTT2=
EXTT3=
EXTT4=
EXTT5=
EXTT6=
EXTT7=
EXTT8=
EXTT9=
EXTT10=
EXTT11=
EXTT12=
EXTT13=
EXTT14=
EXTT15=
EXTT16=
EXTT17=
PLAYORDER=
